<?xml version="1.0"?>
<svg xmlns="http://www.w3.org/2000/svg" id="outline" viewBox="0 0 512 512" width="512" height="512"><path d="M464,384a32.057,32.057,0,0,0-30.987,24H400V352h40a8,8,0,0,0,8-8V262.987a32,32,0,1,0-16,0V336H400V302.833A54.9,54.9,0,0,0,345.167,248H288v-9.839A72.231,72.231,0,0,0,344,168h0a31.992,31.992,0,0,0,14.884-60.315,60.5,60.5,0,0,0,5.908-5.163l8.865-8.865A8,8,0,0,0,368,80h-.221a32.125,32.125,0,0,1-29.45-19.954,72.11,72.11,0,0,0-26.244-31.808A59.148,59.148,0,0,0,256,23.187a59.15,59.15,0,0,0-56.085,5.052A72.071,72.071,0,0,0,168,88.121V104a32,32,0,0,0,0,64h0a72.231,72.231,0,0,0,56,70.161V248H166.833a54.789,54.789,0,0,0-44.569,22.95L96,244.687V208h56a8,8,0,0,0,8-8V184H144v8H32V48H144V88h16V40a8,8,0,0,0-8-8H24a8,8,0,0,0-8,8V200a8,8,0,0,0,8,8H80v40a8,8,0,0,0,2.343,5.657l32.319,32.32A54.61,54.61,0,0,0,112,302.833V368H40.133A24.16,24.16,0,0,0,16,392.133v79.734A24.16,24.16,0,0,0,40.133,496H167.867A24.16,24.16,0,0,0,192,471.867V464h48V448H192V392.133A24.159,24.159,0,0,0,168,368V339.314l26.343,26.343,11.314-11.314L168,316.686V312h-4.686l-29.529-29.529A38.838,38.838,0,0,1,166.833,264h58.18a32,32,0,0,0,61.974,0h58.18A38.876,38.876,0,0,1,384,302.833V336H360V312H344v24H329.929a24.959,24.959,0,0,0-40.958-19.173,24.971,24.971,0,0,0-33.657,36.83l28,28a8,8,0,0,0,11.314,0l28-28c.534-.533,1.033-1.089,1.508-1.657H344V488h16V456h24v40h16V424h33.013A32,32,0,1,0,464,384ZM424,232a16,16,0,1,1,16,16A16.019,16.019,0,0,1,424,232ZM40.133,480A8.142,8.142,0,0,1,32,471.867V392.133A8.142,8.142,0,0,1,40.133,384H48v32a32.037,32.037,0,0,0,32,32,16.019,16.019,0,0,1,16,16v16ZM112,480V464a32.036,32.036,0,0,0-32-32,16.019,16.019,0,0,1-16-16V384H80v5.89A18.13,18.13,0,0,0,98.11,408h21.462A24.455,24.455,0,0,1,144,432.428V480Zm64-87.867v79.734A8.142,8.142,0,0,1,167.867,480H160V432.428A40.474,40.474,0,0,0,119.572,392H98.11A2.112,2.112,0,0,1,96,389.89V384h71.867A8.142,8.142,0,0,1,176,392.133Zm-24-68.819V368H128V302.833c0-1.134.059-2.254.155-3.364ZM216,168h80v50.542A55.771,55.771,0,0,1,271.879,224H240.121A55.771,55.771,0,0,1,216,218.542Zm96,39.066v-40.82l16-4v5.633A55.926,55.926,0,0,1,312,207.066ZM344,152V120a16,16,0,0,1,0,32ZM184,88.121a56.093,56.093,0,0,1,24.845-46.6A43.243,43.243,0,0,1,252.4,39.145a8,8,0,0,0,7.2,0,43.251,43.251,0,0,1,43.555,2.37,56.146,56.146,0,0,1,20.438,24.763,48.578,48.578,0,0,0,27.883,26.813A43.35,43.35,0,0,1,322.6,104,62.119,62.119,0,0,1,263.59,61.471a8,8,0,0,0-6.528-5.4A8.124,8.124,0,0,0,256,56a8,8,0,0,0-6.654,3.562L236.977,78.113a58.253,58.253,0,0,1-7.265,8.861A57.75,57.75,0,0,1,188.608,104H184ZM188.608,120a73.647,73.647,0,0,0,52.418-21.712,74.319,74.319,0,0,0,9.263-11.3l4.335-6.5A78.1,78.1,0,0,0,322.6,120q2.721,0,5.4-.239v25.993L303.016,152H208.984L184,145.754V120ZM152,136a16.019,16.019,0,0,1,16-16v32A16.019,16.019,0,0,1,152,136Zm32,31.879v-5.633l16,4v40.82A55.926,55.926,0,0,1,184,167.879ZM256,272a16.019,16.019,0,0,1-16-16V240c.041,0,.081,0,.121,0h31.758c.041,0,.081,0,.121,0v16A16.019,16.019,0,0,1,256,272Zm55.314,70.343-22.343,22.344-22.344-22.344a8.971,8.971,0,0,1,0-12.686h0a8.981,8.981,0,0,1,12.686,0l4,4a8,8,0,0,0,11.314,0l4-4a8.97,8.97,0,0,1,12.686,12.686ZM384,352v16H360V352Zm0,88H360V384h24v24h-8v16h8Zm80-8a16,16,0,1,1,16-16A16.019,16.019,0,0,1,464,432Z"/><rect x="216" y="120" width="16" height="16"/><rect x="280" y="120" width="16" height="16"/><path d="M136,104V56H120V99.719L99.563,113.344l8.875,13.312,24-16A8,8,0,0,0,136,104Z"/><path d="M112,88V80.489A16.508,16.508,0,0,0,95.51,64,47.563,47.563,0,0,0,48,111.51v58.753a16.466,16.466,0,0,0,23.865,14.749l16.86-8.43A41.878,41.878,0,0,0,112,138.921V136H96v2.921a25.962,25.962,0,0,1-14.432,23.35L64.71,170.7a.49.49,0,0,1-.71-.438V111.51A31.545,31.545,0,0,1,95.51,80a.491.491,0,0,1,.49.489V88Z"/><rect x="400" y="72" width="16" height="16"/><rect x="432" y="72" width="56" height="16"/><rect x="400" y="104" width="80" height="16"/><rect x="400" y="136" width="56" height="16"/><rect x="472" y="136" width="16" height="16"/></svg>
