<svg id="_x31_" height="512" viewBox="0 0 24 24" width="512" xmlns="http://www.w3.org/2000/svg"><g><path d="m17 22c-2.757 0-5-2.243-5-5s2.243-5 5-5 5 2.243 5 5-2.243 5-5 5zm0-9c-2.206 0-4 1.794-4 4s1.794 4 4 4 4-1.794 4-4-1.794-4-4-4z"/></g><g><path d="m23.5 24c-.128 0-.256-.049-.354-.146l-3.068-3.068c-.195-.195-.195-.512 0-.707s.512-.195.707 0l3.068 3.068c.195.195.195.512 0 .707-.097.097-.225.146-.353.146z"/></g><g><path d="m12 11c-6.729 0-12-2.416-12-5.5s5.271-5.5 12-5.5 12 2.416 12 5.5c0 1.922-1.971 3.605-5.408 4.62-.264.08-.543-.072-.621-.338-.078-.265.073-.543.338-.621 2.894-.854 4.691-2.257 4.691-3.661 0-2.439-5.038-4.5-11-4.5s-11 2.061-11 4.5 5.038 4.5 11 4.5c.448 0 .887-.009 1.316-.039.28-.011.514.189.533.465.019.275-.189.514-.465.533-.451.031-.912.041-1.384.041z"/></g><g><path d="m22.79 12.74c-.115 0-.23-.039-.324-.119-.21-.179-.235-.495-.057-.705.392-.46.591-.937.591-1.416v-5c0-.276.224-.5.5-.5s.5.224.5.5v5c0 .713-.287 1.427-.829 2.064-.099.117-.24.176-.381.176z"/></g><g><path d="m9.68 15.9h-.01c-5.712-.511-9.67-2.731-9.67-5.4v-5c0-.276.224-.5.5-.5s.5.224.5.5v5c0 2.063 3.747 3.956 8.715 4.402.266.024.472.253.459.521-.011.266-.226.477-.494.477z"/></g><g><path d="m.75 5h22.5v1h-22.5z"/></g></svg>