<svg width="44" height="44" viewBox="0 0 44 44" fill="none" xmlns="http://www.w3.org/2000/svg">
<path d="M28.1094 7.875H32.5625C33.5073 7.875 34.4135 8.25033 35.0816 8.91843C35.7497 9.58653 36.125 10.4927 36.125 11.4375V34.5938C36.125 35.5386 35.7497 36.4447 35.0816 37.1128C34.4135 37.7809 33.5073 38.1563 32.5625 38.1563H11.1875C10.2427 38.1563 9.33653 37.7809 8.66843 37.1128C8.00033 36.4447 7.625 35.5386 7.625 34.5938V11.4375C7.625 10.4927 8.00033 9.58653 8.66843 8.91843C9.33653 8.25033 10.2427 7.875 11.1875 7.875H15.6406" stroke="#823DF1" stroke-width="3" stroke-linecap="round" stroke-linejoin="round"/>
<path d="M15.8562 7.01109C16.0488 6.24038 16.4935 5.55618 17.1197 5.06722C17.7458 4.57827 18.5174 4.31262 19.3118 4.3125H24.4364C25.2309 4.31262 26.0025 4.57827 26.6286 5.06722C27.2547 5.55618 27.6994 6.24038 27.8921 7.01109L29 11.4375H14.75L15.8562 7.01109Z" stroke="#823DF1" stroke-width="3" stroke-linecap="round" stroke-linejoin="round"/>
<path d="M16.5312 22.125H27.2188" stroke="#823DF1" stroke-width="3" stroke-linecap="round"/>
<path d="M16.5312 29.25H27.2188" stroke="#823DF1" stroke-width="3" stroke-linecap="round"/>
</svg>
