<svg width="24" height="24" viewBox="0 0 24 24" fill="none" xmlns="http://www.w3.org/2000/svg">
<path d="M20.7398 7.4859C20.7543 7.68325 20.7543 7.87946 20.7543 8.07568C20.7543 14.0806 16.2171 21 7.9251 21C5.37045 21 2.99715 20.2546 1 18.96C1.36271 19.0018 1.71199 19.0164 2.08925 19.0164C4.11886 19.0214 6.09099 18.3377 7.68777 17.0757C6.74676 17.0585 5.83455 16.7458 5.07853 16.1811C4.3225 15.6165 3.76039 14.8281 3.47069 13.9261C3.74944 13.9678 4.02931 13.996 4.32261 13.996C4.72675 13.996 5.13312 13.9396 5.51038 13.8415C4.48915 13.6338 3.57085 13.0762 2.91164 12.2635C2.25243 11.4508 1.893 10.4333 1.89446 9.38379V9.3274C2.49562 9.66458 3.19306 9.87545 3.93192 9.90365C3.31294 9.48932 2.80541 8.9271 2.45458 8.26715C2.10376 7.6072 1.92056 6.87003 1.92133 6.12141C1.92133 5.27791 2.14411 4.50432 2.53481 3.82997C3.66787 5.23395 5.08106 6.38254 6.68285 7.20134C8.28464 8.02015 10.0393 8.49091 11.8332 8.58314C11.7638 8.24483 11.7212 7.89412 11.7212 7.54229C11.721 6.9457 11.8374 6.35491 12.0639 5.80368C12.2904 5.25245 12.6225 4.75159 13.0413 4.32974C13.4601 3.9079 13.9573 3.57332 14.5045 3.34516C15.0518 3.11699 15.6383 2.9997 16.2305 3C17.5291 3 18.7012 3.54805 19.5251 4.43441C20.5347 4.23776 21.5027 3.86653 22.3865 3.33718C22.05 4.38684 21.3451 5.2769 20.4039 5.84062C21.2993 5.73775 22.1743 5.50057 23 5.13695C22.3833 6.04259 21.6191 6.83675 20.7398 7.4859Z" fill="#823DF1"/>
</svg>
