<?xml version="1.0" encoding="UTF-8"?>
<svg xmlns="http://www.w3.org/2000/svg" id="Outline" viewBox="0 0 64 64" width="512" height="512"><circle cx="46" cy="31" r="1"/><circle cx="50" cy="31" r="1"/><circle cx="48" cy="52" r="1"/><circle cx="48" cy="48" r="1"/><path d="M24.859,37.341A7.985,7.985,0,0,0,28,31a1,1,0,0,0-2,0,6.006,6.006,0,0,1-6,6H16a6,6,0,0,1,0-12H26v2a1,1,0,0,0,2,0V24a1,1,0,0,0-1-1H16.518V19h3a5.006,5.006,0,0,0,5-5V10a5.006,5.006,0,0,0-5-5,1,1,0,0,0,0,2,3,3,0,0,1,3,3v4a3,3,0,0,1-3,3h-4a1,1,0,0,0-1,1v3.238L11.286,17.36a1,1,0,0,0-.768-.36h-3a3,3,0,0,1-3-3V10a3,3,0,0,1,3-3H16a1,1,0,0,0,0-2H7.518a5.006,5.006,0,0,0-5,5v4a5.006,5.006,0,0,0,5,5h2.531l3.623,4.348a7.987,7.987,0,0,0-2.531,13.993A6.991,6.991,0,0,0,14,41.73V42H13a7.007,7.007,0,0,0-6.935,6.094A5,5,0,0,0,2,53v8a1,1,0,0,0,2,0V53a3,3,0,0,1,3-3H17a3,3,0,0,1,3,3v8a1,1,0,0,0,2,0V53a5.006,5.006,0,0,0-5-5H8.1A5.009,5.009,0,0,1,13,44h1.142A3.992,3.992,0,0,0,22,43V41.73A6.991,6.991,0,0,0,24.859,37.341ZM16,39h4a7.981,7.981,0,0,0,2.187-.311,4.948,4.948,0,0,1-8.374,0A7.981,7.981,0,0,0,16,39Zm4,4a2,2,0,0,1-4,0v-.3a6.883,6.883,0,0,0,4,0Z"/><path d="M57,16a5.006,5.006,0,0,0,5-5V7a5.006,5.006,0,0,0-5-5H50a1,1,0,0,0,0,2h7a3,3,0,0,1,3,3v4a3,3,0,0,1-3,3H47a1,1,0,0,0-1,1v3.238L42.768,14.36A1,1,0,0,0,42,14H39a3,3,0,0,1-3-3V7a3,3,0,0,1,3-3h7a1,1,0,0,0,0-2H39a5.006,5.006,0,0,0-5,5v4a5.006,5.006,0,0,0,5,5h2.532l3.333,4H43a4,4,0,0,0-4,4v3c0,.06.013.12.016.179A3,3,0,0,0,37,30a4,4,0,0,0,4,4h.08A7,7,0,0,0,44,38.736V39H43a7.008,7.008,0,0,0-7,7v2.017a3.017,3.017,0,0,0-.949.137l-1.737.579-1.722.574-1.156-2.9a6.959,6.959,0,0,0-5.259-4.3,1,1,0,0,0-.354,1.968,4.972,4.972,0,0,1,3.755,3.068l1.506,3.778a1,1,0,0,0,1.246.578l1.7-.568.7,1.874-3.418,1.14a1.01,1.01,0,0,1-1.212-.5L26.9,49.025A1,1,0,0,0,25,49.473V61a1,1,0,0,0,1,1H61a1,1,0,0,0,0-2H27V53.708l.316.634a3.033,3.033,0,0,0,3.633,1.5l4.4-1.468L36,54.162V56H30a1,1,0,0,0,0,2H61a1,1,0,0,0,0-2H49a1,1,0,0,0-2,0H38V53.177a2.939,2.939,0,0,0,0-4.409V46a4.985,4.985,0,0,1,2.071-4.033,6.876,6.876,0,0,0-.149,4.531,2.974,2.974,0,0,0-.22,4.074L40.988,52.1a1,1,0,0,0,1.409.123l.766-.643a1,1,0,0,0-1.286-1.532l-.643-.766a1,1,0,0,1,.123-1.409l.767-.643a1,1,0,0,1,1.408.123l.643.767a1,1,0,1,0,1.286,1.531l.766-.642A1,1,0,0,0,46.35,47.6l-1.286-1.532a2.956,2.956,0,0,0-3.4-.849,4.9,4.9,0,0,1,.557-3.16l.58-1.043c.067,0,.131-.02.2-.02h1v1a1,1,0,0,0,.445.832l3,2a1,1,0,0,0,1.11,0l3-2A1,1,0,0,0,52,42V41h1c.07,0,.136.018.206.021l.272,1.394a4.307,4.307,0,0,1-.97,3.635,2.991,2.991,0,1,0,2.143.449,6.3,6.3,0,0,0,.789-4.467l-.08-.412A4.984,4.984,0,0,1,58,46v7a1,1,0,0,0,2,0V46a7.008,7.008,0,0,0-7-7H52v-.264A7,7,0,0,0,54.92,34H55a4,4,0,0,0,4-4,3,3,0,0,0-2.016-2.821c0-.059.016-.119.016-.179a7.008,7.008,0,0,0-7-7H48V16ZM35.683,50.051a1,1,0,0,1,1.294.734,1.091,1.091,0,0,1-.772,1.2l-.571.191-.7-1.874ZM53,50a1,1,0,1,1,1-1A1,1,0,0,1,53,50ZM39,30a1,1,0,0,1,1-1h1v3A2,2,0,0,1,39,30ZM50,41.465,48,42.8l-2-1.333v-1.76a6.927,6.927,0,0,0,4,0ZM48,38a5.006,5.006,0,0,1-5-5V28.924a6.587,6.587,0,0,0,4.161-2.406A10.566,10.566,0,0,0,53,28.954V33A5.006,5.006,0,0,1,48,38Zm7-6V29h1a1,1,0,0,1,1,1A2,2,0,0,1,55,32Zm0-5H54a8.6,8.6,0,0,1-6.122-2.536l-.171-.171a.988.988,0,0,0-.806-.288,1,1,0,0,0-.733.44l-.336.5A4.6,4.6,0,0,1,42,27H41V24a2,2,0,0,1,2-2h7A5.006,5.006,0,0,1,55,27Z"/><path d="M8,11h3a1,1,0,0,0,0-2H8a1,1,0,0,0,0,2Z"/><path d="M20,10a1,1,0,0,0-1-1H15a1,1,0,0,0,0,2h4A1,1,0,0,0,20,10Z"/><path d="M8,15h8a1,1,0,0,0,0-2H8a1,1,0,0,0,0,2Z"/><path d="M40,8h3a1,1,0,0,0,0-2H40a1,1,0,0,0,0,2Z"/><path d="M50,6H47a1,1,0,0,0,0,2h3a1,1,0,0,0,0-2Z"/><path d="M57,8a1,1,0,0,0,0-2H54a1,1,0,0,0,0,2Z"/><path d="M40,12h7a1,1,0,0,0,0-2H40a1,1,0,0,0,0,2Z"/><path d="M50,11a1,1,0,0,0,1,1h3a1,1,0,0,0,0-2H51A1,1,0,0,0,50,11Z"/></svg>
