<svg width="44" height="44" viewBox="0 0 44 44" fill="none" xmlns="http://www.w3.org/2000/svg">
<path d="M16.425 20.7C14.5353 20.7 12.7231 19.9493 11.3869 18.6131C10.0507 17.2769 9.30001 15.4646 9.30001 13.575V7.87498C9.30001 7.49704 9.45015 7.13459 9.71739 6.86735C9.98463 6.60011 10.3471 6.44998 10.725 6.44998H12.15C12.5279 6.44998 12.8904 6.29984 13.1576 6.0326C13.4249 5.76536 13.575 5.40291 13.575 5.02498C13.575 4.64704 13.4249 4.28459 13.1576 4.01735C12.8904 3.75011 12.5279 3.59998 12.15 3.59998H10.725C9.59121 3.59998 8.50385 4.05038 7.70213 4.85209C6.90041 5.65381 6.45001 6.74118 6.45001 7.87498V13.575C6.45184 15.1849 6.84441 16.7702 7.594 18.1949C8.34359 19.6197 9.4278 20.8411 10.7535 21.7545C12.0272 22.8774 13.0602 24.2468 13.79 25.78C14.5199 27.3132 14.9315 28.9783 15 30.675C15 33.3205 16.0509 35.8577 17.9216 37.7284C19.7923 39.599 22.3295 40.65 24.975 40.65C27.6206 40.65 30.1577 39.599 32.0284 37.7284C33.8991 35.8577 34.95 33.3205 34.95 30.675V29.0505C36.2933 28.7036 37.464 27.8788 38.2426 26.7306C39.0213 25.5823 39.3544 24.1895 39.1796 22.8133C39.0048 21.437 38.334 20.1717 37.293 19.2546C36.2521 18.3375 34.9124 17.8315 33.525 17.8315C32.1377 17.8315 30.798 18.3375 29.757 19.2546C28.716 20.1717 28.0453 21.437 27.8704 22.8133C27.6956 24.1895 28.0288 25.5823 28.8074 26.7306C29.586 27.8788 30.7567 28.7036 32.1 29.0505V30.675C32.1 32.5646 31.3493 34.3769 30.0132 35.7131C28.677 37.0493 26.8647 37.8 24.975 37.8C23.0853 37.8 21.2731 37.0493 19.9369 35.7131C18.6007 34.3769 17.85 32.5646 17.85 30.675C17.9221 28.9762 18.3382 27.3098 19.073 25.7765C19.8078 24.2432 20.8461 22.8749 22.125 21.7545C23.4455 20.838 24.5241 19.6151 25.2686 18.1906C26.0132 16.7661 26.4014 15.1823 26.4 13.575V7.87498C26.4 6.74118 25.9496 5.65381 25.1479 4.85209C24.3462 4.05038 23.2588 3.59998 22.125 3.59998H20.7C20.3221 3.59998 19.9596 3.75011 19.6924 4.01735C19.4251 4.28459 19.275 4.64704 19.275 5.02498C19.275 5.40291 19.4251 5.76536 19.6924 6.0326C19.9596 6.29984 20.3221 6.44998 20.7 6.44998H22.125C22.5029 6.44998 22.8654 6.60011 23.1326 6.86735C23.3999 7.13459 23.55 7.49704 23.55 7.87498V13.575C23.55 14.5106 23.3657 15.4372 23.0077 16.3016C22.6496 17.166 22.1248 17.9515 21.4632 18.6131C20.8015 19.2747 20.0161 19.7996 19.1516 20.1576C18.2872 20.5157 17.3607 20.7 16.425 20.7ZM33.525 26.4C32.7691 26.4 32.0442 26.0997 31.5098 25.5652C30.9753 25.0308 30.675 24.3058 30.675 23.55C30.675 22.7941 30.9753 22.0692 31.5098 21.5347C32.0442 21.0002 32.7691 20.7 33.525 20.7C34.2809 20.7 35.0058 21.0002 35.5403 21.5347C36.0747 22.0692 36.375 22.7941 36.375 23.55C36.375 24.3058 36.0747 25.0308 35.5403 25.5652C35.0058 26.0997 34.2809 26.4 33.525 26.4Z" fill="#823DF1"/>
</svg>
